<svg id="Layer_1" xmlns="http://www.w3.org/2000/svg" viewBox="0 0 1920 1080"><style>.st1{fill:none!important;stroke:#fff!important;stroke-width:2.6075px !important;stroke-miterlimit:10}</style><g id="Building_Drawing" opacity=".5"><path class="st1" d="M1 218.7l28.8-12.6 366.4 49.6v5.3l539 74.6 13.6-3.8 263.1 37.7v5.3l507.3 68.6h12.8l141 17.3v4.2c0-4.3 46.1 7.1 46.1 7.1v322.6L1 875.3V218.7z"/><path class="st1" d="M396.2 255.6l-.8 99.5-366.3-41.4L1 326.5M948.7 331.7v83l262.4 29.4.7-69.4M1732 443.3s-3 55 0 56.5 141 15.8 141 15.8v-50.8M1919 479.5l-46.1-5.3M1731.4 455l-519.6-67.1M948.7 352.1l-552.5-71.6"/><path class="st1" d="M1 340l33.3-12.8L1919 527M1 479.5l35.3-14.6L1919 596.3M1 498.8l42.4-8 352.8 24.9M565 523l892.6 57.3M1540 585.3l379 25.1M1919 655.1l-350.9-10.5v-5.3h23.6zM1467.4 639.3l-811.9-28.9-35.4 4v-9h34.6zM1 596.3l63.5 3.8v-16.6L1 580.3z"/><path class="st1" d="M361.5 600.1l-297-9.9v-6.7l285.7 12.8zM32.7 600.1v273.8l14.5-.6V599.1zM47.2 580.3v-89.2l-11.4 1.1v88.1l-3.1-89.5M188.1 503.2v85.9M188.1 596.3v271.1M327.6 510.8v84.5M327.6 600.1v261.4M620.1 527v322.2M666 530.6v74.8M666 610.8v236.5M795.7 537.8v73M795.7 615.4v226.4M831.1 321.1v216.7M834.9 540.7v70.1M834.9 616.8l3.8 223.2M910.3 545.1v70.3M910.3 619.5V837M999.2 551.6v67.9M999.2 622.6l5.3 210.5M1084.5 556.3v66.1M1084.5 829.7c.7-5.7 0-204 0-204M1165.1 561.5v64.2M1165.1 628.6l7.6 197.4M1238.9 566.2v59.5M1238.9 631.2v192M1294.1 385.8l3.6 434.9M1360.3 574c-.6 0 0 57.2 0 57.2M1360.3 635.5l6.8 182.3M1401.8 575.7v59.8M1401.8 637l2.6 179.2M1426.7 578.3v57.2M1426.7 637.9l3 177.3M1568.1 587.2v222.2M1588 587.2v50.7M1588 645.2v163.3M1618.2 590.5v48.8M1618.2 646.1l2.2 161.1M1670.2 436.7v156.9M1672.8 593.6v49.6M1672.8 647.7V805M1711.2 596.6v48.5M1711.2 648.9v154.4M1758 599.7v46.4M1758 650.3v151.1M1801.8 602.6l1.4 46.3M1803.2 651.7l-.7 147.8M1846.6 605.6v44.7M1846.6 655.1v142.5M1886.9 606.9v46.7M1886.9 796V655.1M1462.6 551.6l17.1-2.5 67.8 7.2-16.1 2.4M1460.6 564.3l2 249.5 77.4-3.3V569.9zM408.2 473.2l11.6-3L565 481.3l-12 4.5M396.2 490v368.6l168.8-7.1V501.8"/></g></svg>