<?xml version="1.0" encoding="utf-8"?>
<!-- Generator: Adobe Illustrator 22.1.0, SVG Export Plug-In . SVG Version: 6.00 Build 0)  -->
<svg version="1.1" id="Layer_1" xmlns="http://www.w3.org/2000/svg" xmlns:xlink="http://www.w3.org/1999/xlink" x="0px" y="0px"
	 viewBox="0 0 181.3 133.4" style="enable-background:new 0 0 181.3 133.4;" xml:space="preserve">
<style type="text/css">
	.m-footer__logo{fill:#FFFFFF;}
</style>
<g id="Footer_Logo">
	<g>
		<path class="m-footer__logo" d="M3.6,26.1v21.6H0.2V0h12.2c5.5,0,9.6,1.1,12.3,3.2c2.7,2.1,4.1,5.2,4.1,9.3c0,1.8-0.3,3.5-0.9,5
			s-1.5,2.8-2.7,4c-1.2,1.1-2.6,2.1-4.3,2.8c-1.7,0.7-3.5,1.2-5.6,1.4c0.5,0.3,1,0.8,1.4,1.3l16.4,20.6h-3c-0.4,0-0.7-0.1-0.9-0.2
			c-0.3-0.1-0.5-0.4-0.8-0.7L13.1,27.4c-0.4-0.5-0.8-0.8-1.2-1c-0.4-0.2-1.1-0.3-2-0.3C9.9,26.1,3.6,26.1,3.6,26.1z M3.6,23.5h8.3
			c2.1,0,4-0.3,5.7-0.8s3.1-1.2,4.2-2.2c1.2-0.9,2-2.1,2.6-3.4s0.9-2.8,0.9-4.5c0-3.4-1.1-5.9-3.3-7.5c-2.2-1.6-5.5-2.5-9.7-2.5H3.6
			C3.6,2.6,3.6,23.5,3.6,23.5z"/>
		<path class="m-footer__logo" d="M46,47.6h-3.5V0H46V47.6z"/>
		<path class="m-footer__logo" d="M55.7,0h2.7c0.3,0,0.6,0.1,0.8,0.3c0.2,0.2,0.4,0.4,0.5,0.7l16.2,39.6c0.4,1,0.8,2.1,1,3.3
			c0.2-1.2,0.6-2.3,1-3.3L94.1,1c0.1-0.2,0.3-0.5,0.5-0.6c0.2-0.2,0.5-0.3,0.8-0.3h2.7L78.4,47.8h-3.1L55.7,0z"/>
		<path class="m-footer__logo" d="M151.5,26.1v21.6h-3.4V0h12.2c5.5,0,9.6,1.1,12.3,3.2s4.1,5.2,4.1,9.3c0,1.8-0.3,3.5-0.9,5
			c-0.6,1.5-1.5,2.8-2.7,4c-1.2,1.1-2.6,2.1-4.3,2.8c-1.7,0.7-3.5,1.2-5.6,1.4c0.5,0.3,1,0.8,1.4,1.3L181,47.6h-3
			c-0.4,0-0.7-0.1-0.9-0.2c-0.3-0.1-0.5-0.4-0.8-0.7L161,27.4c-0.4-0.5-0.8-0.8-1.2-1s-1.1-0.3-2-0.3
			C157.8,26.1,151.5,26.1,151.5,26.1z M151.5,23.5h8.3c2.1,0,4-0.3,5.7-0.8s3.1-1.2,4.2-2.2c1.2-0.9,2-2.1,2.6-3.4s0.9-2.8,0.9-4.5
			c0-3.4-1.1-5.9-3.3-7.5s-5.5-2.5-9.7-2.5h-8.7V23.5z"/>
		<path class="m-footer__logo" d="M0,109.2V61.5h13.7c2.7,0,5.1,0.3,7.1,0.8s3.6,1.3,4.9,2.4c1.3,1,2.3,2.3,2.9,3.8s1,3.2,1,5.1
			c0,1.3-0.2,2.5-0.7,3.6s-1.1,2.2-1.9,3.2s-1.8,1.8-3,2.6c-1.2,0.7-2.6,1.3-4.1,1.7c3.8,0.6,6.6,1.8,8.7,3.7c2,1.9,3,4.5,3,7.6
			c0,2-0.4,3.8-1.1,5.5c-0.7,1.6-1.8,3-3.1,4.1c-1.4,1.1-3.1,2-5.1,2.6s-4.3,0.9-6.8,0.9L0,109.2L0,109.2z M3.4,83.9h10.3
			c2.2,0,4.1-0.3,5.6-0.8c1.6-0.6,2.8-1.3,3.8-2.2s1.7-2,2.2-3.1c0.5-1.2,0.7-2.4,0.7-3.6c0-3.2-1-5.6-3-7.3s-5.2-2.5-9.4-2.5H3.4
			V83.9z M3.4,86.4v20.1h12c4.2,0,7.4-0.9,9.5-2.7s3.2-4.4,3.2-7.6c0-1.5-0.3-2.9-0.9-4.1c-0.6-1.2-1.4-2.2-2.5-3.1
			c-1.1-0.8-2.4-1.5-4-1.9s-3.4-0.7-5.4-0.7H3.4z"/>
		<path class="m-footer__logo" d="M93.1,61.7c0.2,0.1,0.4,0.3,0.6,0.5l30.9,41.3c-0.1-0.7-0.1-1.3-0.1-2v-40h3v47.7h-1.7
			c-0.5,0-0.9-0.2-1.2-0.7l-31-41.4c0.1,0.7,0.1,1.3,0.1,1.9v40.2h-3V61.5h1.7C92.7,61.6,93,61.6,93.1,61.7z"/>
		<path class="m-footer__logo" d="M181,85.4c0,3.7-0.6,7-1.7,9.9c-1.1,2.9-2.7,5.4-4.6,7.5c-2,2.1-4.4,3.7-7.2,4.8s-5.9,1.7-9.3,1.7h-17.4V61.6
			h17.4c3.4,0,6.5,0.6,9.3,1.7c2.8,1.1,5.2,2.7,7.2,4.7c2,2.1,3.5,4.6,4.6,7.5C180.4,78.4,181,81.7,181,85.4z M177.4,85.4
			c0-3.3-0.5-6.3-1.4-8.9c-0.9-2.6-2.2-4.8-3.9-6.6s-3.7-3.2-6-4.1c-2.4-0.9-5-1.4-7.9-1.4h-13.9v42.1h13.9c2.9,0,5.5-0.5,7.9-1.4
			s4.4-2.3,6-4.1c1.7-1.8,3-4,3.9-6.6C176.9,91.7,177.4,88.7,177.4,85.4z"/>
		<g>
			<rect x="45.7" y="84.5" transform="matrix(0.9656 -0.26 0.26 0.9656 -20.234 18.062)" class="m-footer__logo" width="24.9" height="2"/>
			<polygon class="m-footer__logo" points="48.8,101.8 49,102.4 49,102.4 49,102.7 49.3,103.7 78.4,95.9 78,94 			"/>
			<polygon class="m-footer__logo" points="71.1,68.9 70.6,67.1 41.6,74.9 41.7,75.4 41.7,75.4 41.8,75.8 42.1,76.8 			"/>
		</g>
		<g>
			<polygon class="m-footer__logo" points="131.9,7.4 131.4,5.5 102.4,13.3 102.5,13.9 102.5,13.9 102.7,14.6 102.7,14.6 102.9,15.2 			"/>
			<polygon class="m-footer__logo" points="139.2,34.3 138.8,32.4 109.6,40.3 109.8,40.8 109.8,40.8 110,41.6 110,41.6 110.1,42.2 			"/>
			<polygon class="m-footer__logo" points="131.3,21.6 130.8,19.7 106.7,26.2 106.9,26.7 106.9,26.7 107,27.4 107.2,28.1 			"/>
		</g>
	</g>
	<g>
		<path class="m-footer__logo" d="M7.2,131.3c0.1,0,0.1,0,0.2,0.1l0.5,0.5c-0.4,0.4-0.8,0.8-1.4,1c-0.5,0.2-1.2,0.4-2,0.4
			c-0.7,0-1.3-0.1-1.8-0.3s-1-0.6-1.4-1s-0.7-0.9-0.9-1.5s-0.3-1.2-0.3-1.9s0.1-1.4,0.3-1.9c0.2-0.6,0.5-1.1,1-1.5
			c0.4-0.4,0.9-0.8,1.5-1s1.2-0.3,1.9-0.3s1.3,0.1,1.8,0.3s0.9,0.5,1.3,0.9l-0.4,0.6l-0.1,0.1c0,0-0.1,0-0.2,0s-0.1,0-0.2-0.1
			c-0.1,0-0.1-0.1-0.2-0.2c-0.1-0.1-0.2-0.1-0.3-0.2c-0.1-0.1-0.3-0.1-0.4-0.2c-0.2-0.1-0.3-0.1-0.6-0.2c-0.2,0-0.5-0.1-0.7-0.1
			c-0.5,0-1,0.1-1.4,0.3s-0.8,0.4-1.1,0.7s-0.5,0.7-0.7,1.2s-0.3,1-0.3,1.5c0,0.6,0.1,1.1,0.3,1.6s0.4,0.8,0.7,1.2
			c0.3,0.3,0.6,0.6,1,0.7c0.4,0.2,0.8,0.2,1.3,0.2c0.3,0,0.5,0,0.8,0c0.2,0,0.4-0.1,0.6-0.2c0.2-0.1,0.4-0.2,0.5-0.3
			c0.2-0.1,0.3-0.2,0.5-0.4C7.1,131.3,7.1,131.3,7.2,131.3z"/>
		<path class="m-footer__logo" d="M12.8,129.3v3.9h-1.3v-9.4h2.6c0.6,0,1.1,0.1,1.5,0.2c0.4,0.1,0.8,0.3,1.1,0.5c0.3,0.2,0.5,0.5,0.6,0.8
			s0.2,0.7,0.2,1.1c0,0.3-0.1,0.6-0.2,0.9c-0.1,0.3-0.3,0.5-0.5,0.8c-0.2,0.2-0.4,0.4-0.7,0.6c-0.3,0.2-0.6,0.3-1,0.4
			c0.2,0.1,0.3,0.2,0.4,0.4l2.7,3.7h-1.1c-0.2,0-0.4-0.1-0.5-0.3l-2.4-3.3c-0.1-0.1-0.2-0.2-0.2-0.2c-0.1,0-0.2-0.1-0.4-0.1
			L12.8,129.3L12.8,129.3z M12.8,128.4h1.3c0.4,0,0.7,0,1-0.1s0.5-0.2,0.7-0.4s0.3-0.4,0.4-0.6c0.1-0.2,0.1-0.5,0.1-0.8
			c0-0.6-0.2-1-0.6-1.3s-0.9-0.4-1.6-0.4h-1.4L12.8,128.4L12.8,128.4z"/>
		<path class="m-footer__logo" d="M27.5,123.9v1H23v3.1h3.7v1h-3.6v3.2h4.5v1h-5.8v-9.4L27.5,123.9L27.5,123.9z"/>
		<path class="m-footer__logo" d="M39,133.2h-1c-0.1,0-0.2,0-0.3-0.1c-0.1-0.1-0.1-0.1-0.2-0.2l-0.9-2.3h-4.2l-0.9,2.3c0,0.1-0.1,0.1-0.2,0.2
			c-0.1,0.1-0.2,0.1-0.3,0.1h-1l3.7-9.4H35L39,133.2z M32.8,129.8h3.5l-1.5-3.8c-0.1-0.2-0.2-0.5-0.3-0.9c0,0.2-0.1,0.3-0.1,0.5
			s-0.1,0.3-0.1,0.4L32.8,129.8z"/>
		<path class="m-footer__logo" d="M47.6,123.9v1.1h-3v8.3h-1.3V125h-3v-1.1H47.6z"/>
		<path class="m-footer__logo" d="M52.3,133.2H51v-9.4h1.3V133.2z"/>
		<path class="m-footer__logo" d="M57.6,123.9c0.1,0,0.1,0.1,0.2,0.2l5.4,7.1c0-0.1,0-0.2,0-0.3s0-0.2,0-0.3V124h1.1v9.4h-0.6
			c-0.1,0-0.2,0-0.3-0.1c-0.1,0-0.1-0.1-0.2-0.2l-5.4-7.1c0,0.1,0,0.2,0,0.3s0,0.2,0,0.3v6.7h-1.1v-9.4h0.7
			C57.5,123.9,57.6,123.9,57.6,123.9z"/>
		<path class="m-footer__logo" d="M72.7,132.3c0.3,0,0.5,0,0.7,0s0.4-0.1,0.6-0.1c0.2,0,0.4-0.1,0.5-0.2c0.2-0.1,0.3-0.1,0.5-0.2v-2.1h-1.5
			c-0.1,0-0.1,0-0.2-0.1c-0.1,0-0.1-0.1-0.1-0.2v-0.7h2.9v3.6c-0.2,0.2-0.5,0.3-0.7,0.4c-0.3,0.1-0.5,0.2-0.8,0.3s-0.6,0.1-0.9,0.2
			c-0.3,0-0.7,0.1-1.1,0.1c-0.7,0-1.3-0.1-1.9-0.3c-0.6-0.2-1.1-0.6-1.5-1s-0.7-0.9-1-1.5c-0.2-0.6-0.3-1.2-0.3-1.9s0.1-1.4,0.3-2
			s0.5-1.1,1-1.5s0.9-0.7,1.5-1s1.3-0.3,2-0.3c0.4,0,0.7,0,1,0.1s0.6,0.1,0.9,0.2c0.3,0.1,0.5,0.2,0.8,0.4c0.2,0.1,0.4,0.3,0.6,0.5
			l-0.4,0.6c-0.1,0.1-0.2,0.2-0.3,0.2s-0.1,0-0.2-0.1c-0.1-0.1-0.2-0.1-0.4-0.2c-0.1-0.1-0.3-0.2-0.5-0.3s-0.4-0.1-0.7-0.2
			c-0.3-0.1-0.6-0.1-0.9-0.1c-0.5,0-1,0.1-1.4,0.3s-0.8,0.4-1.1,0.7s-0.5,0.7-0.7,1.2s-0.2,1-0.2,1.5c0,0.6,0.1,1.1,0.3,1.6
			s0.4,0.9,0.7,1.2s0.7,0.6,1.1,0.7C71.7,132.2,72.2,132.3,72.7,132.3z"/>
		<path class="m-footer__logo" d="M91,131.3c0.1,0,0.1,0,0.2,0.1l0.5,0.5c-0.4,0.4-0.8,0.8-1.4,1c-0.5,0.2-1.2,0.4-2,0.4
			c-0.7,0-1.3-0.1-1.8-0.3s-1-0.6-1.4-1s-0.7-0.9-0.9-1.5s-0.3-1.2-0.3-1.9s0.1-1.4,0.3-1.9c0.2-0.6,0.5-1.1,1-1.5
			c0.4-0.4,0.9-0.8,1.5-1s1.2-0.3,1.9-0.3s1.3,0.1,1.8,0.3s0.9,0.5,1.3,0.9l-0.4,0.6l-0.1,0.1c0,0-0.1,0-0.2,0c-0.1,0-0.1,0-0.2-0.1
			c-0.1,0-0.1-0.1-0.2-0.2c-0.1-0.1-0.2-0.1-0.3-0.2c-0.1-0.1-0.3-0.1-0.4-0.2c-0.2-0.1-0.3-0.1-0.6-0.2c-0.2,0-0.5-0.1-0.7-0.1
			c-0.5,0-1,0.1-1.4,0.3s-0.8,0.4-1.1,0.7s-0.5,0.7-0.7,1.2s-0.3,1-0.3,1.5c0,0.6,0.1,1.1,0.3,1.6s0.4,0.8,0.7,1.2
			c0.3,0.3,0.6,0.6,1,0.7c0.4,0.2,0.8,0.2,1.3,0.2c0.3,0,0.5,0,0.8,0c0.2,0,0.4-0.1,0.6-0.2c0.2-0.1,0.4-0.2,0.5-0.3
			c0.2-0.1,0.3-0.2,0.5-0.4C90.9,131.3,90.9,131.3,91,131.3z"/>
		<path class="m-footer__logo" d="M103.9,128.6c0,0.7-0.1,1.3-0.3,1.9c-0.2,0.6-0.5,1.1-0.9,1.5s-0.9,0.8-1.5,1s-1.2,0.3-1.9,0.3
			s-1.3-0.1-1.9-0.3c-0.6-0.2-1.1-0.6-1.5-1s-0.7-0.9-0.9-1.5s-0.3-1.2-0.3-1.9s0.1-1.3,0.3-1.9c0.2-0.6,0.5-1.1,0.9-1.5
			s0.9-0.8,1.5-1s1.2-0.4,1.9-0.4s1.3,0.1,1.9,0.4c0.6,0.2,1.1,0.6,1.5,1s0.7,0.9,0.9,1.5C103.8,127.2,103.9,127.9,103.9,128.6z
			 M102.6,128.6c0-0.6-0.1-1.1-0.2-1.5c-0.2-0.5-0.4-0.8-0.7-1.2c-0.3-0.3-0.6-0.6-1-0.7c-0.4-0.2-0.9-0.3-1.4-0.3s-1,0.1-1.4,0.3
			s-0.8,0.4-1,0.7c-0.3,0.3-0.5,0.7-0.7,1.2s-0.2,1-0.2,1.5s0.1,1.1,0.2,1.5c0.2,0.5,0.4,0.8,0.7,1.2c0.3,0.3,0.6,0.6,1,0.7
			c0.4,0.2,0.9,0.3,1.4,0.3s1-0.1,1.4-0.3s0.8-0.4,1-0.7c0.3-0.3,0.5-0.7,0.7-1.2C102.6,129.7,102.6,129.1,102.6,128.6z"/>
		<path class="m-footer__logo" d="M112.3,130.2c0,0.1,0.1,0.2,0.1,0.3c0-0.1,0.1-0.2,0.1-0.3s0.1-0.2,0.2-0.3l3.2-5.8c0.1-0.1,0.1-0.2,0.2-0.2
			c0.1,0,0.1,0,0.3,0h0.9v9.4h-1.1v-6.9c0-0.1,0-0.2,0-0.3s0-0.2,0-0.3l-3.2,5.9c-0.1,0.2-0.3,0.3-0.5,0.3h-0.2
			c-0.2,0-0.3-0.1-0.5-0.3l-3.3-5.9c0,0.1,0,0.2,0,0.3s0,0.2,0,0.3v6.9h-1.1v-9.4h0.9c0.1,0,0.2,0,0.3,0s0.1,0.1,0.2,0.2l3.2,5.8
			C112.2,130,112.3,130.1,112.3,130.2z"/>
		<path class="m-footer__logo" d="M126.3,130.2c0,0.1,0.1,0.2,0.1,0.3c0-0.1,0.1-0.2,0.1-0.3s0.1-0.2,0.2-0.3l3.2-5.8c0.1-0.1,0.1-0.2,0.2-0.2
			c0.1,0,0.1,0,0.3,0h0.9v9.4h-1.1v-6.9c0-0.1,0-0.2,0-0.3s0-0.2,0-0.3l-3.2,5.9c-0.1,0.2-0.3,0.3-0.5,0.3h-0.2
			c-0.2,0-0.3-0.1-0.5-0.3l-3.3-5.9c0,0.1,0,0.2,0,0.3s0,0.2,0,0.3v6.9h-1.1v-9.4h0.9c0.1,0,0.2,0,0.3,0s0.1,0.1,0.2,0.2l3.2,5.8
			C126.2,130,126.2,130.1,126.3,130.2z"/>
		<path class="m-footer__logo" d="M139.1,132.2c0.4,0,0.7-0.1,1-0.2c0.3-0.1,0.6-0.3,0.8-0.5s0.4-0.5,0.5-0.8s0.2-0.7,0.2-1.1v-5.7h1.3v5.7
			c0,0.5-0.1,1-0.3,1.5s-0.4,0.9-0.7,1.2s-0.7,0.6-1.2,0.8s-1,0.3-1.6,0.3s-1.1-0.1-1.6-0.3s-0.9-0.5-1.2-0.8s-0.6-0.7-0.7-1.2
			c-0.2-0.5-0.3-1-0.3-1.5v-5.7h1.3v5.7c0,0.4,0.1,0.8,0.2,1.1c0.1,0.3,0.3,0.6,0.5,0.8s0.5,0.4,0.8,0.6
			C138.3,132.2,138.7,132.2,139.1,132.2z"/>
		<path class="m-footer__logo" d="M147.8,123.9c0.1,0,0.1,0.1,0.2,0.2l5.4,7.1c0-0.1,0-0.2,0-0.3s0-0.2,0-0.3V124h1.1v9.4h-0.6
			c-0.1,0-0.2,0-0.3-0.1c-0.1,0-0.1-0.1-0.2-0.2L148,126c0,0.1,0,0.2,0,0.3s0,0.2,0,0.3v6.7h-1.1v-9.4h0.7
			C147.6,123.9,147.7,123.9,147.8,123.9z"/>
		<path class="m-footer__logo" d="M160.1,133.2h-1.3v-9.4h1.3V133.2z"/>
		<path class="m-footer__logo" d="M170.9,123.9v1.1h-3v8.3h-1.3V125h-3v-1.1H170.9z"/>
		<path class="m-footer__logo" d="M177.8,129.5v3.7h-1.3v-3.7l-3.4-5.6h1.1c0.1,0,0.2,0,0.3,0.1s0.1,0.1,0.2,0.2l2.1,3.6
			c0.1,0.2,0.2,0.3,0.2,0.4c0.1,0.1,0.1,0.3,0.2,0.4c0-0.1,0.1-0.3,0.2-0.4c0.1-0.1,0.1-0.3,0.2-0.4l2.1-3.6c0-0.1,0.1-0.1,0.2-0.2
			c0.1-0.1,0.2-0.1,0.3-0.1h1.1L177.8,129.5z"/>
	</g>
</g>
</svg>
