<?xml version="1.0" encoding="utf-8"?>
<!-- Generator: Adobe Illustrator 22.1.0, SVG Export Plug-In . SVG Version: 6.00 Build 0)  -->
<svg version="1.1" id="Layer_1" xmlns="http://www.w3.org/2000/svg" xmlns:xlink="http://www.w3.org/1999/xlink" x="0px" y="0px"
	 viewBox="0 0 708.8 521.7" style="enable-background:new 0 0 708.8 521.7;" xml:space="preserve">
<style type="text/css">
	.m-hero__logo{fill:#FFFFFF;}
</style>
<g id="River_Bend_Logo">
	<g id="Logo">
		<path class="m-hero__logo" d="M14,102.1v84.3H0.5V0h47.6c21.5,0,37.6,4.2,48.2,12.5s15.9,20.5,15.9,36.6c0,7.1-1.2,13.6-3.7,19.5
			c-2.5,5.9-6,11-10.6,15.5c-4.6,4.4-10.2,8.1-16.7,10.9c-6.5,2.9-13.8,4.7-22,5.6c2.1,1.3,4,3.1,5.7,5.3l64.2,80.6h-11.7
			c-1.4,0-2.6-0.3-3.6-0.8s-2-1.4-3-2.6l-59.7-75.6c-1.5-1.9-3.1-3.3-4.8-4.1c-1.7-0.8-4.4-1.2-8-1.2H14V102.1z M14,92.1h32.4
			c8.3,0,15.7-1,22.2-3s12.1-4.8,16.6-8.5c4.5-3.7,8-8.1,10.3-13.3c2.4-5.2,3.6-11,3.6-17.5c0-13.3-4.3-23.1-13-29.5
			s-21.3-9.6-38-9.6H14V92.1z"/>
		<path class="m-hero__logo" d="M179.9,186.4h-13.6V0h13.6V186.4z"/>
		<path class="m-hero__logo" d="M217.8,0h10.7c1.2,0,2.2,0.3,3,1s1.4,1.5,1.8,2.6l63.5,154.7c1.7,4,3,8.3,4.1,12.9c1-4.7,2.2-9,3.8-12.9
			L368.1,3.6c0.4-1,1.1-1.8,1.9-2.5s1.9-1.1,3.1-1.1h10.5l-77,186.5h-12L217.8,0z"/>
		<path class="m-hero__logo" d="M592.8,102.1v84.3h-13.5V0h47.6c21.5,0,37.6,4.2,48.2,12.5C685.7,20.8,691,33,691,49.1
			c0,7.1-1.2,13.6-3.7,19.5c-2.5,5.9-6,11-10.6,15.5c-4.6,4.4-10.2,8.1-16.7,10.9c-6.5,2.9-13.8,4.7-22,5.6c2.1,1.3,4,3.1,5.7,5.3
			l64.2,80.6h-11.7c-1.4,0-2.6-0.3-3.6-0.8s-2-1.4-3-2.6l-59.7-75.6c-1.5-1.9-3.1-3.3-4.8-4.1s-4.4-1.2-8-1.2h-24.3V102.1z
			 M592.8,92.1h32.4c8.3,0,15.7-1,22.2-3s12.1-4.8,16.6-8.5s8-8.1,10.3-13.3c2.4-5.2,3.6-11,3.6-17.5c0-13.3-4.3-23.1-13-29.5
			s-21.3-9.6-38-9.6h-34.1V92.1z"/>
		<path class="m-hero__logo" d="M0,427.3V240.8h53.6c10.6,0,19.8,1.1,27.6,3.2c7.8,2.1,14.2,5.2,19.3,9.3c5.1,4.1,8.9,9.1,11.4,15
			s3.8,12.6,3.8,20c0,4.9-0.9,9.7-2.6,14.2c-1.7,4.6-4.2,8.8-7.4,12.7c-3.3,3.9-7.2,7.2-11.9,10.1s-10.1,5-16.1,6.5
			c14.7,2.2,26,7.1,33.9,14.6c7.9,7.6,11.9,17.5,11.9,29.9c0,7.9-1.4,15-4.2,21.3s-6.9,11.7-12.3,16.1c-5.4,4.4-12,7.8-19.8,10.1
			c-7.8,2.3-16.7,3.5-26.6,3.5L0,427.3L0,427.3z M13.4,328.1h40.5c8.6,0,16-1.1,22.1-3.3c6.1-2.2,11.1-5.1,15-8.7s6.8-7.7,8.6-12.3
			c1.8-4.6,2.8-9.3,2.8-14.1c0-12.6-4-22.1-11.9-28.5c-8-6.5-20.2-9.7-36.8-9.7H13.4V328.1z M13.4,338v78.5h46.8
			c16.4,0,28.8-3.5,37.2-10.6c8.3-7.1,12.5-17,12.5-29.8c0-5.9-1.1-11.2-3.4-15.9c-2.2-4.7-5.5-8.7-9.7-12s-9.4-5.8-15.6-7.6
			c-6.1-1.8-13.1-2.6-20.9-2.6H13.4z"/>
		<path class="m-hero__logo" d="M364.4,241.3c0.7,0.3,1.5,1,2.2,2l120.7,161.6c-0.3-2.6-0.4-5.2-0.4-7.6V240.8h11.9v186.5h-6.5
			c-2,0-3.6-0.9-4.9-2.6L366.2,262.9c0.3,2.6,0.4,5.1,0.4,7.5v156.9h-11.7V240.8h6.6C362.7,240.8,363.7,241,364.4,241.3z"/>
		<path class="m-hero__logo" d="M707.9,334c0,14.4-2.2,27.4-6.5,38.9s-10.4,21.3-18.2,29.4s-17.2,14.3-28.1,18.6c-10.9,4.3-23,6.5-36.2,6.5
			h-68V240.8h68c13.3,0,25.3,2.2,36.2,6.5s20.2,10.5,28.1,18.6c7.8,8.1,13.9,17.9,18.2,29.4C705.8,306.8,707.9,319.7,707.9,334z
			 M694,334c0-13-1.8-24.6-5.4-34.8c-3.6-10.2-8.7-18.8-15.2-25.8S659,261,649.8,257.3c-9.2-3.7-19.5-5.5-30.7-5.5h-54.4v164.6h54.4
			c11.2,0,21.5-1.8,30.7-5.5s17.1-9,23.6-16.1c6.5-7,11.6-15.6,15.2-25.8C692.2,358.7,694,347.1,694,334z"/>
		<g>
			<polygon class="m-hero__logo" points="273.8,318 179.7,343.3 181.7,350.7 275.7,325.4 			"/>
			<polygon class="m-hero__logo" points="191,398.4 191.6,400.6 191.6,400.6 191.9,401.7 193,405.8 306.5,375.2 305.2,367.7 			"/>
			<polygon class="m-hero__logo" points="278.3,269.7 276.3,262.3 162.6,293 163.2,295.2 163.2,295.2 163.5,296.4 164.6,300.4 			"/>
		</g>
		<g>
			<polygon class="m-hero__logo" points="516.1,28.8 514.1,21.4 400.4,52.1 401,54.3 401,54.3 401.8,57.3 401.8,57.3 402.4,59.5 			"/>
			<polygon class="m-hero__logo" points="544.4,134.4 543,126.8 428.8,157.5 429.4,159.7 429.4,159.7 430.2,162.7 430.2,162.7 430.8,164.9
							"/>
			<polygon class="m-hero__logo" points="513.6,84.5 511.6,77.1 417.5,102.4 418.1,104.6 418.1,104.6 418.8,107.1 419.5,109.8 			"/>
		</g>
	</g>
	<g id="Tag">
		<path class="m-hero__logo" d="M28.2,513.7c0.3,0,0.5,0.1,0.7,0.3l1.9,2.1c-1.5,1.7-3.3,3.1-5.5,4.1c-2.1,1-4.7,1.5-7.7,1.5
			c-2.6,0-5-0.5-7.2-1.4c-2.1-0.9-4-2.2-5.5-3.8s-2.7-3.6-3.5-5.9c-0.8-2.3-1.3-4.8-1.3-7.6s0.4-5.3,1.3-7.6
			c0.9-2.3,2.1-4.3,3.8-5.9c1.6-1.7,3.6-2.9,5.8-3.8c2.3-0.9,4.8-1.4,7.5-1.4c2.7,0,5,0.4,7,1.3c1.9,0.8,3.7,2,5.2,3.4l-1.6,2.3
			c-0.1,0.2-0.3,0.3-0.4,0.4c-0.2,0.1-0.4,0.2-0.7,0.2c-0.2,0-0.5-0.1-0.7-0.2c-0.2-0.2-0.5-0.4-0.9-0.6c-0.3-0.2-0.7-0.5-1.2-0.8
			s-1-0.5-1.6-0.8c-0.6-0.2-1.4-0.4-2.2-0.6c-0.8-0.2-1.8-0.2-2.9-0.2c-2,0-3.8,0.3-5.4,1c-1.6,0.7-3,1.6-4.2,2.9
			c-1.2,1.2-2.1,2.8-2.7,4.6c-0.7,1.8-1,3.8-1,6c0,2.3,0.3,4.3,1,6.1s1.6,3.3,2.7,4.5c1.1,1.2,2.5,2.2,4,2.8s3.2,1,5,1
			c1.1,0,2.1-0.1,2.9-0.2c0.9-0.1,1.7-0.3,2.4-0.6c0.7-0.3,1.4-0.6,2.1-1c0.6-0.4,1.3-0.9,1.9-1.5C27.7,513.8,28,513.7,28.2,513.7z"
			/>
		<path class="m-hero__logo" d="M50.3,505.9v15.3h-4.9v-36.6h10.4c2.3,0,4.3,0.2,6,0.7s3.1,1.1,4.2,2c1.1,0.9,1.9,2,2.4,3.2
			c0.5,1.3,0.8,2.7,0.8,4.2c0,1.3-0.2,2.5-0.6,3.6c-0.4,1.1-1,2.1-1.8,3s-1.7,1.7-2.8,2.3c-1.1,0.6-2.4,1.1-3.8,1.4
			c0.6,0.4,1.2,0.9,1.6,1.6l10.7,14.6h-4.4c-0.9,0-1.6-0.3-2-1l-9.5-13.1c-0.3-0.4-0.6-0.7-0.9-0.9s-0.8-0.3-1.5-0.3H50.3z
			 M50.3,502.3h5.2c1.5,0,2.7-0.2,3.8-0.5c1.1-0.3,2-0.8,2.8-1.5c0.7-0.6,1.3-1.4,1.7-2.3c0.4-0.9,0.6-1.9,0.6-2.9
			c0-2.2-0.7-3.8-2.2-4.9c-1.4-1.1-3.6-1.7-6.4-1.7h-5.5V502.3z"/>
		<path class="m-hero__logo" d="M107.8,484.6v4H90.2v12.2h14.2v3.9H90.2v12.5h17.6v4H85.2v-36.6L107.8,484.6L107.8,484.6z"/>
		<path class="m-hero__logo" d="M152.5,521.2h-3.8c-0.4,0-0.8-0.1-1.1-0.3s-0.5-0.5-0.6-0.8l-3.4-8.8h-16.4l-3.4,8.8
			c-0.1,0.3-0.3,0.6-0.6,0.8s-0.6,0.4-1.1,0.4h-3.8l14.7-36.6h5L152.5,521.2z M128.5,507.6h13.7l-5.8-14.9c-0.4-0.9-0.7-2.1-1.1-3.5
			c-0.2,0.7-0.4,1.3-0.5,1.9c-0.2,0.6-0.4,1.1-0.5,1.5L128.5,507.6z"/>
		<path class="m-hero__logo" d="M186.1,484.6v4.2h-11.8v32.5h-5v-32.5h-11.9v-4.2H186.1z"/>
		<path class="m-hero__logo" d="M204.6,521.2h-5v-36.6h5V521.2z"/>
		<path class="m-hero__logo" d="M225.4,484.8c0.2,0.1,0.5,0.3,0.7,0.7l21.2,27.6c0-0.4-0.1-0.9-0.1-1.3c0-0.4,0-0.8,0-1.2v-26h4.3v36.6H249
			c-0.4,0-0.7-0.1-1-0.2c-0.3-0.1-0.5-0.4-0.8-0.7L226,492.7c0,0.4,0.1,0.8,0.1,1.3c0,0.4,0,0.8,0,1.1v26.1h-4.3v-36.6h2.6
			C224.9,484.6,225.2,484.6,225.4,484.8z"/>
		<path class="m-hero__logo" d="M284.3,517.6c1,0,1.9,0,2.7-0.1c0.8-0.1,1.6-0.2,2.3-0.4c0.7-0.2,1.4-0.4,2.1-0.7c0.6-0.3,1.3-0.6,1.9-0.9
			v-8.1h-5.7c-0.3,0-0.6-0.1-0.8-0.3c-0.2-0.2-0.3-0.4-0.3-0.7v-2.8h11.2v14.1c-0.9,0.7-1.9,1.2-2.9,1.7s-2.1,0.9-3.2,1.2
			s-2.3,0.6-3.6,0.7c-1.3,0.2-2.7,0.2-4.2,0.2c-2.7,0-5.1-0.5-7.3-1.4s-4.1-2.2-5.7-3.8s-2.9-3.6-3.7-5.9c-0.9-2.3-1.3-4.8-1.3-7.6
			s0.4-5.3,1.3-7.6s2.1-4.3,3.8-5.9s3.6-2.9,5.9-3.8s4.9-1.4,7.8-1.4c1.5,0,2.8,0.1,4,0.3s2.4,0.5,3.5,0.9s2.1,0.9,3,1.5
			s1.7,1.2,2.5,1.9l-1.4,2.2c-0.3,0.5-0.7,0.7-1.1,0.7c-0.3,0-0.6-0.1-0.9-0.3c-0.4-0.2-0.9-0.5-1.4-0.9c-0.5-0.3-1.2-0.7-1.9-1
			c-0.8-0.3-1.7-0.6-2.7-0.8s-2.3-0.3-3.7-0.3c-2.1,0-3.9,0.3-5.6,1s-3.1,1.6-4.3,2.9c-1.2,1.3-2.1,2.8-2.7,4.6s-0.9,3.8-0.9,6
			c0,2.3,0.3,4.4,1,6.2s1.6,3.4,2.8,4.6c1.2,1.3,2.6,2.2,4.2,2.9C280.5,517.3,282.3,517.6,284.3,517.6z"/>
		<path class="m-hero__logo" d="M356,513.7c0.3,0,0.5,0.1,0.7,0.3l1.9,2.1c-1.5,1.7-3.3,3.1-5.5,4.1c-2.1,1-4.7,1.5-7.7,1.5
			c-2.6,0-5-0.5-7.2-1.4c-2.1-0.9-4-2.2-5.5-3.8s-2.7-3.6-3.5-5.9c-0.8-2.3-1.3-4.8-1.3-7.6s0.4-5.3,1.3-7.6s2.1-4.3,3.8-5.9
			c1.6-1.7,3.6-2.9,5.8-3.8c2.3-0.9,4.8-1.4,7.5-1.4s5,0.4,7,1.3c1.9,0.8,3.7,2,5.2,3.4l-1.6,2.3c-0.1,0.2-0.3,0.3-0.4,0.4
			c-0.2,0.1-0.4,0.2-0.7,0.2c-0.2,0-0.5-0.1-0.7-0.2c-0.2-0.2-0.5-0.4-0.9-0.6c-0.3-0.2-0.7-0.5-1.2-0.8s-1-0.5-1.6-0.8
			c-0.6-0.2-1.4-0.4-2.2-0.6c-0.8-0.2-1.8-0.2-2.9-0.2c-2,0-3.8,0.3-5.4,1s-3,1.6-4.2,2.9c-1.2,1.2-2.1,2.8-2.7,4.6
			c-0.7,1.8-1,3.8-1,6c0,2.3,0.3,4.3,1,6.1s1.6,3.3,2.7,4.5s2.5,2.2,4,2.8s3.2,1,5,1c1.1,0,2.1-0.1,2.9-0.2c0.9-0.1,1.7-0.3,2.4-0.6
			c0.7-0.3,1.4-0.6,2.1-1c0.6-0.4,1.3-0.9,1.9-1.5C355.4,513.8,355.7,513.7,356,513.7z"/>
		<path class="m-hero__logo" d="M406.6,502.9c0,2.7-0.4,5.3-1.3,7.6s-2.1,4.3-3.7,5.9s-3.5,2.9-5.7,3.8c-2.2,0.9-4.7,1.4-7.4,1.4
			c-2.7,0-5.1-0.5-7.4-1.4c-2.2-0.9-4.1-2.2-5.7-3.8c-1.6-1.7-2.8-3.6-3.7-5.9c-0.9-2.3-1.3-4.8-1.3-7.6c0-2.7,0.4-5.3,1.3-7.6
			s2.1-4.3,3.7-5.9c1.6-1.7,3.5-3,5.7-3.9s4.7-1.4,7.4-1.4c2.7,0,5.2,0.5,7.4,1.4c2.2,0.9,4.1,2.2,5.7,3.9s2.8,3.6,3.7,5.9
			C406.2,497.7,406.6,500.2,406.6,502.9z M401.6,502.9c0-2.2-0.3-4.3-0.9-6.1s-1.5-3.3-2.6-4.5s-2.5-2.2-4.1-2.8
			c-1.6-0.7-3.4-1-5.4-1s-3.7,0.3-5.3,1c-1.6,0.7-3,1.6-4.1,2.8s-2,2.7-2.6,4.5s-0.9,3.8-0.9,6.1s0.3,4.3,0.9,6
			c0.6,1.8,1.5,3.3,2.6,4.5s2.5,2.2,4.1,2.8c1.6,0.7,3.4,1,5.3,1c2,0,3.8-0.3,5.4-1s3-1.6,4.1-2.8s2-2.7,2.6-4.5
			C401.2,507.2,401.6,505.2,401.6,502.9z"/>
		<path class="m-hero__logo" d="M439.5,509.3c0.2,0.5,0.4,0.9,0.5,1.4c0.2-0.5,0.3-0.9,0.5-1.4c0.2-0.4,0.4-0.9,0.6-1.3l12.4-22.5
			c0.2-0.4,0.5-0.6,0.7-0.7c0.2-0.1,0.6-0.1,1-0.1h3.7v36.6h-4.3v-26.9c0-0.4,0-0.7,0-1.2c0-0.4,0-0.8,0.1-1.3l-12.5,22.9
			c-0.4,0.8-1,1.2-1.8,1.2h-0.7c-0.8,0-1.4-0.4-1.8-1.2l-12.8-23c0.1,0.4,0.1,0.9,0.1,1.3c0,0.4,0,0.8,0,1.2v26.9h-4.3v-36.6h3.7
			c0.4,0,0.8,0,1,0.1s0.5,0.3,0.7,0.7L439,508C439.1,508.4,439.3,508.8,439.5,509.3z"/>
		<path class="m-hero__logo" d="M494,509.3c0.2,0.5,0.4,0.9,0.5,1.4c0.2-0.5,0.3-0.9,0.5-1.4c0.2-0.4,0.4-0.9,0.6-1.3l12.4-22.5
			c0.2-0.4,0.5-0.6,0.7-0.7c0.2-0.1,0.6-0.1,1-0.1h3.7v36.6h-4.3v-26.9c0-0.4,0-0.7,0-1.2c0-0.4,0-0.8,0.1-1.3l-12.6,22.9
			c-0.4,0.8-1,1.2-1.8,1.2h-0.7c-0.8,0-1.4-0.4-1.8-1.2l-12.8-23c0.1,0.4,0.1,0.9,0.1,1.3c0,0.4,0,0.8,0,1.2v26.9h-4.3v-36.6h3.7
			c0.4,0,0.8,0,1,0.1s0.5,0.3,0.7,0.7l12.7,22.6C493.6,508.4,493.8,508.8,494,509.3z"/>
		<path class="m-hero__logo" d="M544,517.3c1.5,0,2.9-0.3,4.1-0.8c1.2-0.5,2.2-1.2,3-2.1c0.8-0.9,1.5-2,1.9-3.3s0.6-2.7,0.6-4.2v-22.3h4.9
			v22.3c0,2.1-0.3,4.1-1,5.9c-0.7,1.8-1.6,3.4-2.9,4.7c-1.3,1.3-2.8,2.4-4.6,3.1s-3.8,1.1-6.1,1.1s-4.3-0.4-6.1-1.1
			s-3.3-1.8-4.6-3.1s-2.2-2.9-2.9-4.7s-1-3.8-1-5.9v-22.3h4.9v22.2c0,1.5,0.2,2.9,0.6,4.2c0.4,1.3,1.1,2.4,1.9,3.3
			c0.8,0.9,1.8,1.6,3,2.2C541.1,517,542.5,517.3,544,517.3z"/>
		<path class="m-hero__logo" d="M578,484.8c0.2,0.1,0.5,0.3,0.7,0.7l21.2,27.6c0-0.4-0.1-0.9-0.1-1.3c0-0.4,0-0.8,0-1.2v-26h4.3v36.6h-2.5
			c-0.4,0-0.7-0.1-1-0.2c-0.3-0.1-0.5-0.4-0.8-0.7l-21.2-27.6c0,0.4,0.1,0.8,0.1,1.3s0,0.8,0,1.1v26.1h-4.3v-36.6h2.6
			C577.5,484.6,577.8,484.6,578,484.8z"/>
		<path class="m-hero__logo" d="M626.5,521.2h-5v-36.6h5V521.2z"/>
		<path class="m-hero__logo" d="M668.6,484.6v4.2h-11.8v32.5h-5v-32.5h-11.9v-4.2H668.6z"/>
		<path class="m-hero__logo" d="M695.4,506.7v14.6h-4.9v-14.6l-13.4-22.1h4.3c0.4,0,0.8,0.1,1,0.3c0.3,0.2,0.5,0.5,0.7,0.8l8.4,14.2
			c0.3,0.6,0.6,1.2,0.9,1.7c0.2,0.5,0.4,1,0.6,1.6c0.2-0.5,0.4-1.1,0.6-1.6c0.2-0.5,0.5-1.1,0.8-1.7l8.4-14.2
			c0.2-0.3,0.4-0.5,0.6-0.8c0.3-0.2,0.6-0.4,1-0.4h4.4L695.4,506.7z"/>
	</g>
</g>
</svg>
